FILE: The Call 2013 TS x264 AAC-GreekEagle12
RE-ENCODE: GreekEagle12
SOURCE: The Call 2013 TS x264 AAC-OFFLiNE
-------------------------------------------------------------------------------------

Uploader Notes
--------------
Re-encode and

1) Fixed/resynced Audio

2) Reduced movie time to 1h 27mn by deleting "bad black camera recording" at the end

3) Included sample

Enjoy...
--------

Languages: English
Subtitles: -
-------------------------------------------------------------------------------------

ScreenShots
----------- 
http://imageshack.us/a/img341/2112/1mp4snapshot00015920130.jpg
 
http://imageshack.us/a/img515/3015/1mp4snapshot00323720130.jpg
 
http://imageshack.us/a/img844/16/1mp4snapshot00563420130.jpg
 
http://imageshack.us/a/img41/1982/1mp4snapshot01170120130.jpg


The Call

Plot
----
When a veteran 911 operator takes a life-altering call from a teenage girl who has just been abducted, she realizes that she must confront a killer from her past in order to save the girl's life.

Media Info
----------

General
Format                                   : MPEG-4
Format profile                           : Base Media / Version 2
Codec ID                                 : mp42
File size                                : 1.41 GiB
Duration                                 : 1h 27mn
Overall bit rate mode                    : Variable
Overall bit rate                         : 2 306 Kbps
Encoded date                             : UTC 2013-03-31 02:56:00
Tagged date                              : UTC 2013-03-31 02:56:08

Video
ID                                       : 1
Format                                   : AVC
Format/Info                              : Advanced Video Codec
Format profile                           : High@L4.1
Format settings, CABAC                   : Yes
Format settings, ReFrames                : 3 frames
Format settings, GOP                     : M=4, N=29
Codec ID                                 : avc1
Codec ID/Info                            : Advanced Video Coding
Duration                                 : 1h 27mn
Bit rate mode                            : Variable
Bit rate                                 : 2 174 Kbps
Maximum bit rate                         : 40.0 Mbps
Width                                    : 720 pixels
Height                                   : 388 pixels
Display aspect ratio                     : 1.85:1
Frame rate mode                          : Variable
Frame rate                               : 29.970 fps
Minimum frame rate                       : 29.004 fps
Maximum frame rate                       : 30.571 fps
Color space                              : YUV
Chroma subsampling                       : 4:2:0
Bit depth                                : 8 bits
Scan type                                : Progressive
Bits/(Pixel*Frame)                       : 0.260
Stream size                              : 1.33 GiB (94%)
Writing library                          : x264 core 130 r2273 b3065e6
Encoding settings                        : cabac=1 / ref=4 / deblock=1:-1:-1 / analyse=0x3:0x113 / me=umh / subme=9 / psy=1 / psy_rd=1.00:0.15 / mixed_ref=1 / me_range=18 / chroma_me=1 / trellis=2 / 8x8dct=1 / cqm=0 / deadzone=21,11 / fast_pskip=0 / chroma_qp_offset=-3 / threads=6 / lookahead_threads=1 / sliced_threads=0 / slices=4 / nr=0 / decimate=1 / interlaced=0 / bluray_compat=0 / constrained_intra=0 / bframes=3 / b_pyramid=1 / b_adapt=2 / b_bias=0 / direct=1 / weightb=1 / open_gop=0 / weightp=0 / keyint=29 / keyint_min=2 / scenecut=40 / intra_refresh=0 / rc_lookahead=29 / rc=2pass / mbtree=1 / bitrate=2174 / ratetol=1.0 / qcomp=0.60 / qpmin=10 / qpmax=51 / qpstep=4 / cplxblur=20.0 / qblur=0.5 / vbv_maxrate=40000 / vbv_bufsize=30000 / nal_hrd=vbr / ip_ratio=1.40 / aq=1:1.00
Encoded date                             : UTC 2013-03-31 02:56:00
Tagged date                              : UTC 2013-03-31 02:56:08
Color primaries                          : BT.709
Transfer characteristics                 : BT.709
Matrix coefficients                      : BT.709

Audio
ID                                       : 2
Format                                   : AAC
Format/Info                              : Advanced Audio Codec
Format profile                           : LC
Codec ID                                 : 40
Duration                                 : 1h 27mn
Bit rate mode                            : Variable
Bit rate                                 : 125 Kbps
Channel(s)                               : 2 channels
Channel positions                        : Front: L R
Sampling rate                            : 44.1 KHz
Compression mode                         : Lossy
Stream size                              : 78.4 MiB (5%)
Encoded date                             : UTC 2013-03-31 02:56:00
Tagged date                              : UTC 2013-03-31 02:56:08